<?xml version="1.0" encoding="utf-8"?>
<!-- Generator: Adobe Illustrator 16.0.4, SVG Export Plug-In . SVG Version: 6.00 Build 0)  -->
<!DOCTYPE svg PUBLIC "-//W3C//DTD SVG 1.1//EN" "http://www.w3.org/Graphics/SVG/1.1/DTD/svg11.dtd">
<svg version="1.1" id="Layer_1" xmlns="http://www.w3.org/2000/svg" xmlns:xlink="http://www.w3.org/1999/xlink" x="0px" y="0px"
	 width="100px" height="87.453px" viewBox="0 0 100 87.453" enable-background="new 0 0 100 87.453" xml:space="preserve">
<path d="M27.469,9.029c0,0-8.638,0.212-9.489,12.439c-0.854,12.225,1.277,49.481,1.277,49.481l7.048-0.008v3.908
	c0,1.311,1.063,2.374,2.374,2.374h2.886c1.311,0,2.374-1.063,2.374-2.374v-3.917l34.382-0.042v3.959
	c0,1.311,1.061,2.374,2.374,2.374h2.884c1.311,0,2.376-1.063,2.376-2.374v-3.967l6.136-0.006c0,0,2.131-37.254,1.279-49.481
	S73.881,8.957,73.881,8.957S63.973,7.45,50.639,7.45C36.23,7.45,27.469,9.029,27.469,9.029z M38.062,9.466h26.062
	c1.395,0,2.523,1.044,2.523,2.326c0,1.286-1.129,2.329-2.523,2.329H38.062c-1.394,0-2.524-1.043-2.524-2.329
	C35.539,10.51,36.668,9.466,38.062,9.466z M29.998,61.413c-1.87,0-3.384-1.514-3.384-3.384s1.514-3.386,3.384-3.386
	s3.384,1.516,3.384,3.386S31.868,61.413,29.998,61.413z M72.203,61.411c-1.867,0-3.384-1.512-3.384-3.385
	c0-1.869,1.517-3.383,3.384-3.383c1.869,0,3.387,1.514,3.387,3.383C75.59,59.9,74.072,61.411,72.203,61.411z M77.549,43.254
	c0,2.785-2.258,5.042-5.043,5.042H29.472c-2.786,0-5.042-2.257-5.042-5.042V21.331c0-2.785,2.256-5.042,5.042-5.042h43.034
	c2.785,0,5.043,2.257,5.043,5.042V43.254L77.549,43.254z"/>
<text transform="matrix(1 0 0 1 25.8608 42.7366)" font-family="'DejaVuSans'" font-size="26">148</text>
</svg>
