<?xml version="1.0" encoding="utf-8"?>
<!-- Generator: Adobe Illustrator 16.0.4, SVG Export Plug-In . SVG Version: 6.00 Build 0)  -->
<!DOCTYPE svg PUBLIC "-//W3C//DTD SVG 1.1//EN" "http://www.w3.org/Graphics/SVG/1.1/DTD/svg11.dtd">
<svg version="1.1" id="Layer_1" xmlns="http://www.w3.org/2000/svg" xmlns:xlink="http://www.w3.org/1999/xlink" x="0px" y="0px"
	 width="100px" height="100px" viewBox="0 0 100 100" enable-background="new 0 0 100 100" xml:space="preserve">
<path d="M49.75,0L22.031,2.5c-2.242,0-4.062,1.412-4.062,3.156l1.938,62.562c0,1.745,1.82,3.156,4.062,3.156l10.094,0.75L14.312,100
	h7.281l17.562-24.5L60,75.469L77.812,100h7.875l-19.75-27.875l10.094-0.75c2.242,0,4.062-1.411,4.062-3.156l1.938-62.562
	c0-1.745-1.819-3.156-4.062-3.156L49.75,0z M26.906,7.344h46.188c1.523,0,2.75,1.222,2.75,2.719v28.469
	c0,1.498-1.227,2.719-2.75,2.719H26.906c-1.522,0-2.75-1.221-2.75-2.719V10.062C24.156,8.565,25.384,7.344,26.906,7.344z
	 M33.688,51.688c3.33,0,6.031,2.7,6.031,6.031s-2.701,6.031-6.031,6.031c-3.331,0-6.031-2.7-6.031-6.031
	S30.356,51.688,33.688,51.688z M65.688,51.688c3.33,0,6.031,2.7,6.031,6.031s-2.701,6.031-6.031,6.031
	c-3.332,0-6.031-2.7-6.031-6.031S62.355,51.688,65.688,51.688z M38.656,84.062c-0.424,0-0.781,0.436-0.781,0.969v0.594
	c0,0.533,0.357,0.938,0.781,0.938h22.688c0.423,0,0.781-0.404,0.781-0.938v-0.594c0-0.533-0.358-0.969-0.781-0.969H38.656z
	 M31.25,94.75c-0.7,0-1.281,0.436-1.281,0.969v0.594c0,0.532,0.581,0.969,1.281,0.969h37.5c0.701,0,1.281-0.437,1.281-0.969v-0.594
	c0-0.533-0.58-0.969-1.281-0.969H31.25z"/>
<text transform="matrix(1 0 0 1 30.3301 31.2466)" font-family="'DejaVuSans'" font-size="24">red</text>
</svg>
