<?xml version="1.0" encoding="utf-8"?>
<!-- Generator: Adobe Illustrator 16.0.4, SVG Export Plug-In . SVG Version: 6.00 Build 0)  -->
<!DOCTYPE svg PUBLIC "-//W3C//DTD SVG 1.1//EN" "http://www.w3.org/Graphics/SVG/1.1/DTD/svg11.dtd">
<svg version="1.1" id="Layer_1" xmlns="http://www.w3.org/2000/svg" xmlns:xlink="http://www.w3.org/1999/xlink" x="0px" y="0px"
	 width="800px" height="600px" viewBox="0 0 800 600" enable-background="new 0 0 800 600" xml:space="preserve">
<g id="guides" display="none">
	<g display="inline">
		<rect x="10" y="10" fill="#FFFFFF" stroke="#000000" stroke-miterlimit="10" width="780" height="580"/>
		<rect x="10" y="290" fill="#FFFFFF" stroke="#000000" stroke-miterlimit="10" width="780" height="20"/>
	</g>
</g>
<text transform="matrix(1 0 0 1 16.9404 162.3457)" font-family="'DejaVuSans'" font-size="48">24:59</text>
<text transform="matrix(1 0 0 1 456.9805 105.4688)" font-family="'DejaVuSans'" font-size="28">24</text>
<text transform="matrix(1 0 0 1 456.9805 74.4102)" font-family="'DejaVuSans'" font-size="28">24</text>
<text transform="matrix(1 0 0 1 456.9805 43.3516)" font-family="'DejaVuSans'" font-size="28">24</text>
<text transform="matrix(1 0 0 1 456.9805 271.9326)" font-family="'DejaVuSans'" font-size="28">24</text>
<text transform="matrix(1 0 0 1 456.9805 240.873)" font-family="'DejaVuSans'" font-size="28">24</text>
<text transform="matrix(1 0 0 1 456.9805 209.8145)" font-family="'DejaVuSans'" font-size="28">24</text>
<g>
	<path fill="#010101" d="M466.815,118.971c0,0-8.05,0.197-8.843,11.587c-0.795,11.39,1.188,46.097,1.188,46.097l6.565-0.007v3.64
		c0,1.222,0.989,2.211,2.214,2.211h2.688c1.222,0,2.211-0.99,2.211-2.211v-3.649l32.031-0.039v3.688
		c0,1.222,0.988,2.211,2.211,2.211h2.688c1.222,0,2.214-0.99,2.214-2.211v-3.696l5.717-0.005c0,0,1.983-34.706,1.19-46.097
		c-0.793-11.391-8.841-11.587-8.841-11.587s-9.229-1.404-21.65-1.404C474.976,117.5,466.815,118.971,466.815,118.971z
		 M476.683,119.378h24.278c1.3,0,2.352,0.972,2.352,2.167c0,1.198-1.052,2.17-2.352,2.17h-24.278c-1.3,0-2.353-0.972-2.353-2.17
		C474.331,120.35,475.384,119.378,476.683,119.378z M469.169,167.772c-1.741,0-3.151-1.41-3.151-3.152
		c0-1.742,1.41-3.155,3.151-3.155c1.742,0,3.152,1.413,3.152,3.155C472.321,166.362,470.911,167.772,469.169,167.772z
		 M508.487,167.77c-1.738,0-3.152-1.408-3.152-3.153c0-1.741,1.414-3.152,3.152-3.152c1.741,0,3.155,1.411,3.155,3.152
		C511.645,166.363,510.229,167.77,508.487,167.77z M513.468,150.854c0,2.595-2.104,4.697-4.696,4.697h-40.091
		c-2.597,0-4.696-2.103-4.696-4.697v-20.423c0-2.595,2.102-4.697,4.696-4.697h40.091c2.594,0,4.696,2.103,4.696,4.697V150.854
		L513.468,150.854z"/>
	<text transform="matrix(1 0 0 1 465.3164 150.373)" fill="#010101" font-family="'DejaVuSans'" font-size="24.2216">151</text>
</g>
<text transform="matrix(1 0 0 1 492.9805 105.4688)" font-family="'DejaVuSans'" font-size="16">m</text>
<text transform="matrix(1 0 0 1 492.9805 74.4102)" font-family="'DejaVuSans'" font-size="16">m</text>
<text transform="matrix(1 0 0 1 492.9805 43.3516)" font-family="'DejaVuSans'" font-size="16">m</text>
<text transform="matrix(1 0 0 1 492.9805 271.9326)" font-family="'DejaVuSans'" font-size="16">m</text>
<text transform="matrix(1 0 0 1 492.9805 240.873)" font-family="'DejaVuSans'" font-size="16">m</text>
<text transform="matrix(1 0 0 1 492.9805 209.8145)" font-family="'DejaVuSans'" font-size="16">m</text>
<g>
	<path fill="#010101" d="M454.701,199c0-9.319-7.555-16.875-16.875-16.875c-9.319,0-16.875,7.556-16.875,16.875
		c0,9.32,7.556,16.875,16.875,16.875C447.146,215.875,454.701,208.32,454.701,199z M429.701,205.75l-4.375-4.375l12.5-12.499
		l12.5,12.499l-4.375,4.375l-8.125-8.124L429.701,205.75z"/>
</g>
<g>
	<path fill="#010101" d="M437.826,78.125c-9.319,0-16.875,7.555-16.875,16.875c0,9.319,7.556,16.875,16.875,16.875
		c9.32,0,16.875-7.556,16.875-16.875C454.701,85.68,447.146,78.125,437.826,78.125z M437.826,96.374l8.125-8.124l4.375,4.375
		l-12.5,12.499l-12.5-12.499l4.375-4.375L437.826,96.374z"/>
</g>
<text transform="matrix(1 0 0 1 191.4443 105.4688)" font-family="'DejaVuSans'" font-size="28">24</text>
<text transform="matrix(1 0 0 1 191.4443 74.4102)" font-family="'DejaVuSans'" font-size="28">24</text>
<text transform="matrix(1 0 0 1 191.4443 43.3516)" font-family="'DejaVuSans'" font-size="28">24</text>
<text transform="matrix(1 0 0 1 191.4443 271.9326)" font-family="'DejaVuSans'" font-size="28">24</text>
<text transform="matrix(1 0 0 1 191.4443 240.873)" font-family="'DejaVuSans'" font-size="28">378h24</text>
<text transform="matrix(1 0 0 1 191.4443 209.8145)" font-family="'DejaVuSans'" font-size="28">24</text>
<path fill="#010101" d="M201.279,118.971c0,0-8.048,0.197-8.84,11.587c-0.796,11.39,1.189,46.097,1.189,46.097l6.567-0.007v3.64
	c0,1.222,0.99,2.211,2.211,2.211h2.688c1.221,0,2.211-0.99,2.211-2.211v-3.649l32.03-0.039v3.688c0,1.222,0.988,2.211,2.211,2.211
	h2.687c1.222,0,2.214-0.99,2.214-2.211v-3.696l5.716-0.005c0,0,1.986-34.706,1.192-46.097c-0.793-11.391-8.84-11.587-8.84-11.587
	s-9.229-1.404-21.651-1.404C209.44,117.5,201.279,118.971,201.279,118.971z M211.147,119.378h24.279c1.3,0,2.351,0.972,2.351,2.167
	c0,1.198-1.051,2.17-2.351,2.17h-24.279c-1.299,0-2.352-0.972-2.352-2.17C208.796,120.35,209.848,119.378,211.147,119.378z
	 M203.634,167.772c-1.742,0-3.152-1.41-3.152-3.152c0-1.742,1.41-3.155,3.152-3.155c1.742,0,3.152,1.413,3.152,3.155
	C206.786,166.362,205.376,167.772,203.634,167.772z M242.952,167.77c-1.739,0-3.152-1.408-3.152-3.153
	c0-1.741,1.413-3.152,3.152-3.152c1.741,0,3.155,1.411,3.155,3.152C246.107,166.363,244.693,167.77,242.952,167.77z
	 M247.932,150.854c0,2.595-2.103,4.697-4.698,4.697h-40.09c-2.596,0-4.697-2.103-4.697-4.697v-20.423
	c0-2.595,2.102-4.697,4.697-4.697h40.09c2.595,0,4.698,2.103,4.698,4.697V150.854L247.932,150.854z"/>
<text transform="matrix(1 0 0 1 206.3535 150.373)" fill="#010101" font-family="'DejaVuSans'" font-size="26.0008">36</text>
<text transform="matrix(1 0 0 1 227.4443 105.4688)" font-family="'DejaVuSans'" font-size="16">m</text>
<text transform="matrix(1 0 0 1 227.4443 74.4102)" font-family="'DejaVuSans'" font-size="16">m</text>
<text transform="matrix(1 0 0 1 227.4443 43.3516)" font-family="'DejaVuSans'" font-size="16">m</text>
<text transform="matrix(1 0 0 1 227.4443 271.9326)" font-family="'DejaVuSans'" font-size="16">m</text>
<text transform="matrix(1 0 0 1 227.4443 240.873)" font-family="'DejaVuSans'" font-size="16">m</text>
<text transform="matrix(1 0 0 1 227.4443 209.8145)" font-family="'DejaVuSans'" font-size="16">m</text>
<path fill="#010101" d="M188.755,199c0-9.319-7.555-16.875-16.875-16.875c-9.319,0-16.875,7.556-16.875,16.875
	c0,9.32,7.556,16.875,16.875,16.875C181.2,215.875,188.755,208.32,188.755,199z M163.754,205.75l-4.375-4.375l12.5-12.499
	l12.5,12.499l-4.375,4.375l-8.125-8.124L163.754,205.75z"/>
<path fill="#010101" d="M171.88,78.125c-9.319,0-16.875,7.555-16.875,16.875c0,9.319,7.556,16.875,16.875,16.875
	c9.32,0,16.875-7.556,16.875-16.875C188.755,85.68,181.2,78.125,171.88,78.125z M171.88,96.374l8.125-8.124l4.375,4.375
	l-12.5,12.499l-12.5-12.499l4.375-4.375L171.88,96.374z"/>
<text transform="matrix(1 0 0 1 327.0503 105.4688)" font-family="'DejaVuSans'" font-size="28">24</text>
<text transform="matrix(1 0 0 1 327.0503 74.4102)" font-family="'DejaVuSans'" font-size="28">24</text>
<text transform="matrix(1 0 0 1 327.0503 43.3516)" font-family="'DejaVuSans'" font-size="28">24</text>
<text transform="matrix(1 0 0 1 327.0503 271.9326)" font-family="'DejaVuSans'" font-size="28">24</text>
<text transform="matrix(1 0 0 1 327.0503 240.873)" font-family="'DejaVuSans'" font-size="28">24</text>
<text transform="matrix(1 0 0 1 327.0503 209.8145)" font-family="'DejaVuSans'" font-size="28">24</text>
<g>
	<path fill="#010101" d="M336.885,118.971c0,0-8.048,0.197-8.84,11.587c-0.796,11.39,1.188,46.097,1.188,46.097l6.567-0.007v3.64
		c0,1.222,0.989,2.211,2.211,2.211h2.688c1.221,0,2.212-0.99,2.212-2.211v-3.649l32.03-0.039v3.688c0,1.222,0.987,2.211,2.211,2.211
		h2.687c1.223,0,2.214-0.99,2.214-2.211v-3.696l5.716-0.005c0,0,1.986-34.706,1.192-46.097c-0.795-11.391-8.841-11.587-8.841-11.587
		s-9.229-1.404-21.651-1.404C345.045,117.5,336.885,118.971,336.885,118.971z M346.752,119.378h24.279
		c1.3,0,2.351,0.972,2.351,2.167c0,1.198-1.052,2.17-2.351,2.17h-24.279c-1.299,0-2.352-0.972-2.352-2.17
		C344.402,120.35,345.455,119.378,346.752,119.378z M339.241,167.772c-1.742,0-3.152-1.41-3.152-3.152
		c0-1.742,1.41-3.155,3.152-3.155c1.742,0,3.152,1.413,3.152,3.155C342.393,166.362,340.982,167.772,339.241,167.772z
		 M378.559,167.77c-1.739,0-3.152-1.408-3.152-3.153c0-1.741,1.413-3.152,3.152-3.152c1.741,0,3.155,1.411,3.155,3.152
		C381.713,166.363,380.299,167.77,378.559,167.77z M383.539,150.854c0,2.595-2.103,4.697-4.697,4.697h-40.09
		c-2.596,0-4.697-2.103-4.697-4.697v-20.423c0-2.595,2.102-4.697,4.697-4.697h40.09c2.595,0,4.697,2.103,4.697,4.697V150.854
		L383.539,150.854z"/>
	<text transform="matrix(1 0 0 1 341.959 150.373)" fill="#010101" font-family="'DejaVuSans'" font-size="26.0008">78</text>
</g>
<text transform="matrix(1 0 0 1 363.0503 105.4688)" font-family="'DejaVuSans'" font-size="16">m</text>
<text transform="matrix(1 0 0 1 363.0503 74.4102)" font-family="'DejaVuSans'" font-size="16">m</text>
<text transform="matrix(1 0 0 1 363.0503 43.3516)" font-family="'DejaVuSans'" font-size="16">m</text>
<text transform="matrix(1 0 0 1 363.0503 271.9326)" font-family="'DejaVuSans'" font-size="16">m</text>
<text transform="matrix(1 0 0 1 363.0503 240.873)" font-family="'DejaVuSans'" font-size="16">m</text>
<text transform="matrix(1 0 0 1 363.0503 209.8145)" font-family="'DejaVuSans'" font-size="16">m</text>
<g>
	<path fill="#010101" d="M302.016,182.125c-9.32,0-16.875,7.556-16.875,16.875s7.555,16.874,16.875,16.874
		c9.32,0,16.875-7.555,16.875-16.874S311.336,182.125,302.016,182.125z M308.766,207.125l-4.375,4.375L291.892,199l12.499-12.5
		l4.375,4.375L300.642,199L308.766,207.125z"/>
</g>
<g>
	<path fill="#010101" d="M302.016,111.875c9.319,0,16.875-7.556,16.875-16.875s-7.556-16.874-16.875-16.874
		c-9.32,0-16.875,7.555-16.875,16.874S292.695,111.875,302.016,111.875z M295.266,86.875l4.375-4.375L312.14,95l-12.499,12.5
		l-4.375-4.375L303.39,95L295.266,86.875z"/>
</g>
<text transform="matrix(1 0 0 1 590.498 105.4688)" font-family="'DejaVuSans'" font-size="28">24</text>
<text transform="matrix(1 0 0 1 590.498 74.4102)" font-family="'DejaVuSans'" font-size="28">24</text>
<text transform="matrix(1 0 0 1 590.498 43.3516)" font-family="'DejaVuSans'" font-size="28">24</text>
<text transform="matrix(1 0 0 1 590.498 271.9326)" font-family="'DejaVuSans'" font-size="28">24</text>
<text transform="matrix(1 0 0 1 590.498 240.873)" font-family="'DejaVuSans'" font-size="28">24</text>
<text transform="matrix(1 0 0 1 590.498 209.8145)" font-family="'DejaVuSans'" font-size="28">24</text>
<g>
	<path fill="#010101" d="M600.332,118.971c0,0-8.048,0.197-8.84,11.587c-0.796,11.39,1.188,46.097,1.188,46.097l6.566-0.007v3.64
		c0,1.222,0.989,2.211,2.212,2.211h2.688c1.224,0,2.212-0.99,2.212-2.211v-3.649l32.03-0.039v3.688c0,1.222,0.988,2.211,2.212,2.211
		h2.688c1.222,0,2.213-0.99,2.213-2.211v-3.696l5.717-0.005c0,0,1.985-34.706,1.191-46.097c-0.794-11.391-8.842-11.587-8.842-11.587
		s-9.229-1.404-21.65-1.404C608.494,117.5,600.332,118.971,600.332,118.971z M610.2,119.378h24.278c1.301,0,2.352,0.972,2.352,2.167
		c0,1.198-1.052,2.17-2.352,2.17H610.2c-1.299,0-2.354-0.972-2.354-2.17C607.85,120.35,608.901,119.378,610.2,119.378z
		 M602.688,167.772c-1.74,0-3.15-1.41-3.15-3.152c0-1.742,1.41-3.155,3.15-3.155c1.742,0,3.152,1.413,3.152,3.155
		C605.84,166.362,604.43,167.772,602.688,167.772z M642.006,167.77c-1.739,0-3.152-1.408-3.152-3.153
		c0-1.741,1.413-3.152,3.152-3.152c1.741,0,3.155,1.411,3.155,3.152C645.161,166.363,643.747,167.77,642.006,167.77z
		 M646.986,150.854c0,2.595-2.104,4.697-4.698,4.697h-40.09c-2.598,0-4.697-2.103-4.697-4.697v-20.423
		c0-2.595,2.102-4.697,4.697-4.697h40.09c2.595,0,4.698,2.103,4.698,4.697V150.854L646.986,150.854z"/>
	<text transform="matrix(1 0 0 1 597.1367 150.4004)" fill="#010101" font-family="'DejaVuSans'" font-size="26">148</text>
</g>
<text transform="matrix(1 0 0 1 626.498 105.4688)" font-family="'DejaVuSans'" font-size="16">m</text>
<text transform="matrix(1 0 0 1 626.498 74.4102)" font-family="'DejaVuSans'" font-size="16">m</text>
<text transform="matrix(1 0 0 1 626.498 43.3516)" font-family="'DejaVuSans'" font-size="16">m</text>
<text transform="matrix(1 0 0 1 626.498 271.9326)" font-family="'DejaVuSans'" font-size="16">m</text>
<text transform="matrix(1 0 0 1 626.498 240.873)" font-family="'DejaVuSans'" font-size="16">m</text>
<text transform="matrix(1 0 0 1 626.498 209.8145)" font-family="'DejaVuSans'" font-size="16">m</text>
<g>
	<path fill="#010101" d="M586.925,199c0-9.319-7.555-16.875-16.875-16.875c-9.319,0-16.875,7.556-16.875,16.875
		c0,9.32,7.557,16.875,16.875,16.875C579.37,215.875,586.925,208.32,586.925,199z M561.924,205.75l-4.374-4.375l12.5-12.499
		l12.499,12.499l-4.374,4.375l-8.125-8.124L561.924,205.75z"/>
</g>
<path fill="#010101" d="M570.05,78.125c-9.319,0-16.875,7.555-16.875,16.875c0,9.319,7.557,16.875,16.875,16.875
	c9.32,0,16.875-7.556,16.875-16.875C586.925,85.68,579.37,78.125,570.05,78.125z M570.05,96.374l8.125-8.124l4.374,4.375
	l-12.499,12.499l-12.5-12.499l4.374-4.375L570.05,96.374z"/>
<text transform="matrix(1 0 0 1 726.8613 105.4688)" font-family="'DejaVuSans'" font-size="28">24</text>
<text transform="matrix(1 0 0 1 726.8613 74.4102)" font-family="'DejaVuSans'" font-size="28">24</text>
<text transform="matrix(1 0 0 1 726.8613 43.3516)" font-family="'DejaVuSans'" font-size="28">24</text>
<text transform="matrix(1 0 0 1 726.3848 271.9326)" font-family="'DejaVuSans'" font-size="28">24</text>
<text transform="matrix(1 0 0 1 726.8613 240.873)" font-family="'DejaVuSans'" font-size="28">24</text>
<text transform="matrix(1 0 0 1 726.8613 209.8145)" font-family="'DejaVuSans'" font-size="28">24</text>
<g>
	<path fill="#010101" d="M758.15,117.5l-18.02,1.625c-1.457,0-2.64,0.918-2.64,2.052l1.26,40.665c0,1.134,1.183,2.051,2.64,2.051
		l6.562,0.488L735.115,182.5h4.731l11.415-15.925l13.549-0.021l11.578,15.945h5.119L768.67,164.38l6.562-0.488
		c1.457,0,2.641-0.917,2.641-2.051l1.26-40.665c0-1.134-1.182-2.052-2.64-2.052L758.15,117.5z M743.302,122.273h30.022
		c0.987,0,1.787,0.795,1.787,1.768v18.505c0,0.974-0.8,1.767-1.787,1.767h-30.022c-0.989,0-1.788-0.793-1.788-1.767V124.04
		C741.514,123.067,742.312,122.273,743.302,122.273z M747.71,151.098c2.165,0,3.921,1.754,3.921,3.919
		c0,2.166-1.756,3.92-3.921,3.92s-3.92-1.755-3.92-3.92S745.544,151.098,747.71,151.098z M768.51,151.098
		c2.165,0,3.921,1.754,3.921,3.919c0,2.166-1.756,3.92-3.921,3.92c-2.166,0-3.92-1.755-3.92-3.92S766.344,151.098,768.51,151.098z
		 M750.939,172.14c-0.275,0-0.51,0.284-0.51,0.63v0.386c0,0.347,0.232,0.61,0.51,0.61h14.744c0.275,0,0.51-0.263,0.51-0.61v-0.386
		c0-0.347-0.232-0.63-0.51-0.63H750.939z M746.125,179.087c-0.454,0-0.832,0.283-0.832,0.63v0.386c0,0.346,0.378,0.63,0.832,0.63
		H770.5c0.456,0,0.833-0.284,0.833-0.63v-0.386c0-0.347-0.377-0.63-0.833-0.63H746.125z"/>
	<text transform="matrix(1 0 0 1 745.5273 137.8105)" fill="#010101" font-family="'DejaVuSans'" font-size="15.6">red</text>
</g>
<text transform="matrix(1 0 0 1 762.8613 105.4688)" font-family="'DejaVuSans'" font-size="16">m</text>
<text transform="matrix(1 0 0 1 762.8613 74.4102)" font-family="'DejaVuSans'" font-size="16">m</text>
<text transform="matrix(1 0 0 1 762.8613 43.3516)" font-family="'DejaVuSans'" font-size="16">m</text>
<text transform="matrix(1 0 0 1 762.3848 271.9326)" font-family="'DejaVuSans'" font-size="16">m</text>
<text transform="matrix(1 0 0 1 762.8613 240.873)" font-family="'DejaVuSans'" font-size="16">m</text>
<text transform="matrix(1 0 0 1 762.8613 209.8145)" font-family="'DejaVuSans'" font-size="16">m</text>
<g>
	<path fill="#010101" d="M723.755,199c0-9.319-7.555-16.875-16.875-16.875c-9.319,0-16.875,7.556-16.875,16.875
		c0,9.32,7.556,16.875,16.875,16.875C716.2,215.875,723.755,208.32,723.755,199z M698.754,205.75l-4.374-4.375l12.5-12.499
		l12.499,12.499l-4.374,4.375l-8.125-8.124L698.754,205.75z"/>
</g>
<path fill="#010101" d="M706.88,78.125c-9.319,0-16.875,7.555-16.875,16.875c0,9.319,7.556,16.875,16.875,16.875
	c9.32,0,16.875-7.556,16.875-16.875C723.755,85.68,716.2,78.125,706.88,78.125z M706.88,96.374l8.125-8.124l4.374,4.375
	l-12.499,12.499l-12.5-12.499l4.374-4.375L706.88,96.374z"/>
</svg>
