<?xml version="1.0" encoding="utf-8"?>
<!-- Generator: Adobe Illustrator 16.0.4, SVG Export Plug-In . SVG Version: 6.00 Build 0)  -->
<!DOCTYPE svg PUBLIC "-//W3C//DTD SVG 1.1//EN" "http://www.w3.org/Graphics/SVG/1.1/DTD/svg11.dtd">
<svg version="1.1" id="Layer_1" xmlns="http://www.w3.org/2000/svg" xmlns:xlink="http://www.w3.org/1999/xlink" x="0px" y="0px"
	 width="100px" height="100px" viewBox="0 0 100 100" enable-background="new 0 0 100 100" xml:space="preserve">
<path d="M42.732,50.287l3.955,5.841h7.365l3.398-5.841l-3.58-6.22h-7.379L42.732,50.287z M45.765,97.261V84.055l-7.379,4.149
	l-3.759-2.152v-4.653L45.57,75.18v-8.681l-7.939,5.103v-9.196l-7.589,4.374v12.468l-4.151,2.571l-3.508-2.32v-8.355l-11.518,6.498
	l-4.919-2.07V70.3l12.089-6.608l-7.561-3.801v-4.822l4.291-2.35l10.845,6.387l7.533-4.347l-0.182-0.139l-7.701-4.417l7.477-4.64
	l-7.505-4.346l-10.844,6.372l-4.068-2.026v-4.808l7.339-4.123l-11.713-6.36v-5.269l4.5-2.319L21.99,29.35v-8.497l3.48-2.348
	l4.264,2.46l-0.028,12.718l7.756,4.43l-0.027-8.986l8.134,4.375v-8.68l-10.943-6.233v-4.612l3.759-2.18l7.379,4.151V2.768L49.986,0
	l4.261,2.768v13.18l7.646-4.235l3.846,2.544v4.151l-11.322,6.414v8.68l7.744-4.724v9.448l7.979-4.348V20.28l3.844-1.789l4.039,1.789
	v8.694L89.9,22.558l4.152,2.53v4.919l-11.601,6.597l7.254,4.066v4.697l-3.761,2.083l-11.137-6.583l-7.703,4.892l7.449,4.642
	l-7.673,4.416l7.927,4.15l11.137-6.221l3.578,2.529v4.488l-6.987,3.926l11.126,6.61v5.188l-4.71,2.152l-10.931-6.222v8.231
	l-3.928,2.195l-3.843-2.195V67.155l-8.092-4.611v8.681l-7.744-4.726v8.681l10.944,6.219v4.92l-3.776,1.887l-7.337-4.15v13.207
	L49.986,100L45.765,97.261z"/>
<text transform="matrix(1 0 0 1 73.4619 40.2241)" fill="#231F20" stroke="#FFFFFF" stroke-miterlimit="10" font-family="'DejaVuSans'" font-size="50">?</text>
</svg>
