<svg xmlns="http://www.w3.org/2000/svg" height="100" width="100"> 
	 <path d="M51.312,6.031c-13.095,0-23.718,10.6-23.718,23.688c0,0.296,0.08,0.579,0.094,0.875c-0.296-0.02-0.58-0.094-0.876-0.094 	c-7.044,0-12.75,5.705-12.75,12.75c0,0.087,0.032,0.194,0.032,0.281C13.086,43.229,12.04,43,10.938,43C4.895,43,0,47.9,0,53.938 	c0,6.043,4.895,8.344,10.938,8.344h34.374h18.719H81.25c10.357,0,18.75-8.391,18.75-18.75c0-10.359-8.391-18.75-18.75-18.75 	c-2.34,0-4.568,0.47-6.625,1.25C72.837,14.71,63.13,6.031,51.312,6.031z M23.469,68.469L14.438,93.25l1.937,0.719l9.313-25.5H23.469 	z M33.812,68.469L24.781,93.25l1.938,0.719L36,68.469H33.812z M44.125,68.469L35.094,93.25l1.937,0.719l9.281-25.5H44.125z 	 M54.469,68.469L45.438,93.25l1.937,0.719l9.281-25.5H54.469z M64.781,68.469L55.75,93.25l1.938,0.719l9.281-25.5H64.781z 	 M75.094,68.469l-9,24.781l1.938,0.719l9.281-25.5H75.094z"/> <text transform="matrix(1 0 0 1 73.4619 40.2241)" fill="#231F20" stroke="#FFFFFF" stroke-miterlimit="10" font-family="'DejaVuSans'" font-size="50">?</text>
 </svg> 
 