<?xml version="1.0" encoding="utf-8"?>
<!-- Generator: Adobe Illustrator 16.0.4, SVG Export Plug-In . SVG Version: 6.00 Build 0)  -->
<!DOCTYPE svg PUBLIC "-//W3C//DTD SVG 1.1//EN" "http://www.w3.org/Graphics/SVG/1.1/DTD/svg11.dtd">
<svg version="1.1" id="Layer_1" xmlns="http://www.w3.org/2000/svg" xmlns:xlink="http://www.w3.org/1999/xlink" x="0px" y="0px"
	 width="100px" height="100px" viewBox="0 0 100 100" enable-background="new 0 0 100 100" xml:space="preserve">
<path d="M51.312,4.688c-13.095,0-23.718,10.6-23.718,23.688c0,0.296,0.08,0.579,0.094,0.875c-0.296-0.02-0.58-0.094-0.876-0.094
	c-7.044,0-12.75,5.705-12.75,12.75c0,0.087,0.032,0.163,0.032,0.25c-1.008-0.302-2.054-0.5-3.156-0.5
	C4.895,41.656,0,46.558,0,52.595c0,6.043,4.895,8.344,10.938,8.344H81.25c10.357,0,18.75-8.392,18.75-18.75
	c0-10.36-8.391-18.75-18.75-18.75c-2.34,0-4.568,0.47-6.625,1.25C72.837,13.367,63.13,4.688,51.312,4.688L51.312,4.688z
	 M41.75,64.281c-0.973,0.049-1.864,0.653-2.219,1.625c-0.473,1.297,0.204,2.745,1.5,3.219c1.297,0.474,2.745-0.203,3.219-1.5
	s-0.203-2.744-1.5-3.219C42.426,64.289,42.074,64.266,41.75,64.281z M76.188,64.281c-0.973,0.049-1.863,0.653-2.219,1.625
	c-0.474,1.297,0.203,2.745,1.5,3.219s2.715-0.203,3.188-1.5c0.474-1.297-0.172-2.744-1.469-3.219
	C76.863,64.289,76.512,64.266,76.188,64.281z M24.062,65.281c-0.778,0.039-1.497,0.535-1.781,1.313
	c-0.379,1.036,0.182,2.183,1.219,2.562s2.184-0.181,2.562-1.218c0.379-1.038-0.181-2.185-1.218-2.563
	C24.584,65.28,24.322,65.269,24.062,65.281z M58.5,65.281c-0.777,0.039-1.497,0.535-1.781,1.313
	c-0.379,1.036,0.15,2.183,1.188,2.562s2.184-0.181,2.562-1.218c0.379-1.038-0.15-2.185-1.188-2.563
	C59.021,65.28,58.759,65.269,58.5,65.281z M39.375,70.781c-0.973,0.049-1.864,0.684-2.219,1.657c-0.473,1.296,0.204,2.713,1.5,3.187
	c1.297,0.474,2.714-0.203,3.188-1.5c0.473-1.297-0.172-2.713-1.469-3.187C40.051,70.819,39.699,70.766,39.375,70.781z
	 M73.812,70.781c-0.973,0.049-1.863,0.684-2.219,1.657c-0.474,1.296,0.203,2.713,1.5,3.187s2.715-0.203,3.188-1.5
	c0.474-1.297-0.203-2.713-1.5-3.187C74.457,70.819,74.137,70.766,73.812,70.781z M21.688,71.781
	c-0.779,0.039-1.498,0.535-1.782,1.313c-0.379,1.036,0.151,2.183,1.188,2.562c1.037,0.379,2.215-0.15,2.594-1.187
	c0.378-1.038-0.182-2.185-1.219-2.563C22.209,71.812,21.947,71.769,21.688,71.781z M56.125,71.781
	c-0.777,0.039-1.497,0.535-1.781,1.313c-0.379,1.036,0.15,2.183,1.188,2.562s2.184-0.15,2.562-1.187
	c0.379-1.038-0.15-2.185-1.188-2.563C56.646,71.812,56.384,71.769,56.125,71.781z M37,77.281c-0.973,0.049-1.864,0.684-2.219,1.657
	c-0.473,1.296,0.204,2.745,1.5,3.218c1.297,0.475,2.714-0.203,3.188-1.5c0.473-1.296-0.172-2.744-1.469-3.218
	C37.676,77.319,37.324,77.266,37,77.281z M71.438,77.281c-0.973,0.049-1.863,0.684-2.219,1.657
	c-0.474,1.296,0.172,2.745,1.469,3.218c1.297,0.475,2.746-0.203,3.219-1.5c0.474-1.296-0.203-2.744-1.5-3.218
	C72.082,77.319,71.762,77.266,71.438,77.281z M19.312,78.281c-0.778,0.039-1.497,0.535-1.781,1.313
	c-0.379,1.036,0.151,2.215,1.188,2.594c1.037,0.378,2.183-0.183,2.562-1.219c0.379-1.038-0.15-2.185-1.187-2.563
	C19.834,78.312,19.572,78.269,19.312,78.281z M53.75,78.281c-0.777,0.039-1.497,0.535-1.781,1.313
	c-0.379,1.036,0.15,2.215,1.188,2.594c1.037,0.378,2.184-0.183,2.562-1.219c0.379-1.038-0.15-2.185-1.188-2.563
	C54.271,78.312,54.009,78.269,53.75,78.281z M34.625,83.812c-0.973,0.049-1.864,0.652-2.219,1.626
	c-0.473,1.296,0.204,2.745,1.5,3.218c1.297,0.475,2.714-0.203,3.188-1.5c0.473-1.296-0.204-2.714-1.5-3.187
	C35.27,83.851,34.949,83.797,34.625,83.812z M69.062,83.812c-0.973,0.049-1.863,0.652-2.219,1.626
	c-0.474,1.296,0.172,2.745,1.469,3.218c1.297,0.475,2.746-0.203,3.219-1.5c0.474-1.296-0.203-2.714-1.5-3.187
	C69.707,83.851,69.387,83.797,69.062,83.812z M16.938,84.812c-0.779,0.039-1.498,0.535-1.782,1.312
	c-0.379,1.037,0.151,2.185,1.188,2.563c1.037,0.378,2.183-0.151,2.562-1.188c0.379-1.037-0.15-2.184-1.187-2.562
	C17.459,84.844,17.197,84.801,16.938,84.812z M51.375,84.812c-0.777,0.039-1.497,0.535-1.781,1.312
	c-0.379,1.037,0.15,2.185,1.187,2.563c1.037,0.378,2.184-0.151,2.562-1.188s-0.15-2.184-1.188-2.562
	C51.896,84.844,51.634,84.801,51.375,84.812z M26.531,87.031c-1.38,0-2.5,1.12-2.5,2.5c0,1.381,1.12,2.5,2.5,2.5
	c1.381,0,2.5-1.119,2.5-2.5C29.031,88.151,27.912,87.031,26.531,87.031z M60.969,87.031c-1.381,0-2.5,1.12-2.5,2.5
	c0,1.381,1.119,2.5,2.5,2.5s2.5-1.119,2.5-2.5C63.469,88.151,62.35,87.031,60.969,87.031z M8.813,88.031c-1.104,0-2,0.896-2,2
	c0,1.105,0.896,2,2,2s2-0.895,2-2C10.812,88.928,9.917,88.031,8.813,88.031z M43.251,88.031c-1.105,0-2,0.896-2,2
	c0,1.105,0.895,2,2,2s2-0.895,2-2C45.251,88.928,44.356,88.031,43.251,88.031z M32.251,90.312c-0.973,0.049-1.864,0.684-2.219,1.657
	c-0.473,1.296,0.172,2.714,1.469,3.187c1.297,0.475,2.745-0.172,3.219-1.468c0.473-1.297-0.204-2.746-1.5-3.219
	C32.896,90.351,32.575,90.297,32.251,90.312z M66.689,90.312c-0.974,0.049-1.864,0.684-2.219,1.657
	c-0.475,1.296,0.172,2.714,1.469,3.187c1.295,0.475,2.744-0.172,3.218-1.468c0.474-1.297-0.203-2.746-1.5-3.219
	C67.333,90.351,67.014,90.297,66.689,90.312z M14.563,91.312c-0.778,0.039-1.497,0.535-1.781,1.312
	c-0.379,1.037,0.151,2.185,1.188,2.563c1.037,0.378,2.183-0.151,2.562-1.188c0.379-1.037-0.15-2.184-1.187-2.562
	C15.085,91.344,14.823,91.301,14.563,91.312z M49.001,91.312c-0.778,0.039-1.497,0.535-1.781,1.312
	c-0.379,1.037,0.15,2.185,1.187,2.563c1.038,0.378,2.184-0.151,2.563-1.188c0.379-1.037-0.152-2.184-1.188-2.562
	C49.523,91.344,49.26,91.301,49.001,91.312z"/>
<text transform="matrix(1 0 0 1 73.4619 40.2241)" fill="#231F20" stroke="#FFFFFF" stroke-miterlimit="10" font-family="'DejaVuSans'" font-size="50">?</text>
</svg>
