<?xml version="1.0" encoding="utf-8"?>
<!-- Generator: Adobe Illustrator 16.0.4, SVG Export Plug-In . SVG Version: 6.00 Build 0)  -->
<!DOCTYPE svg PUBLIC "-//W3C//DTD SVG 1.1//EN" "http://www.w3.org/Graphics/SVG/1.1/DTD/svg11.dtd">
<svg version="1.1" id="Layer_1" xmlns="http://www.w3.org/2000/svg" xmlns:xlink="http://www.w3.org/1999/xlink" x="0px" y="0px"
	 width="100px" height="100px" viewBox="0 0 100 100" enable-background="new 0 0 100 100" xml:space="preserve">
<path d="M9.197,12.572l0.988,1.46h1.842l0.85-1.46l-0.896-1.555h-1.845L9.197,12.572z M9.955,24.315v-3.302L8.11,22.051L7.17,21.513
	V20.35l2.735-1.555v-2.17L7.921,17.9v-2.299l-1.897,1.093v3.117l-1.038,0.643l-0.877-0.58v-2.089L1.23,19.41L0,18.893v-1.317
	l3.022-1.652l-1.89-0.95v-1.206l1.072-0.587l2.711,1.597l1.883-1.087l-0.046-0.034l-1.925-1.104l1.869-1.16l-1.876-1.086
	l-2.711,1.593l-1.018-0.506v-1.202l1.835-1.031L0,7.568V6.25l1.125-0.58l2.886,1.667V5.213l0.87-0.587l1.065,0.615L5.94,8.421
	l1.939,1.107L7.873,7.282l2.033,1.094v-2.17L7.17,4.647V3.494L8.11,2.949l1.845,1.038V0.692L11.01,0l1.065,0.692v3.295l1.911-1.059
	l0.961,0.636v1.038l-2.83,1.604v2.17l1.936-1.181v2.362l1.995-1.087V5.07l0.961-0.447l1.01,0.447v2.174l2.97-1.604l1.038,0.632
	v1.229l-2.9,1.649l1.813,1.017v1.174L20,11.863l-2.784-1.646L15.29,11.44l1.862,1.16l-1.918,1.104l1.981,1.038L20,13.187
	l0.895,0.632v1.122l-1.746,0.981l2.781,1.653v1.297l-1.178,0.538l-2.732-1.556v2.058l-0.982,0.549l-0.96-0.549v-3.124l-2.023-1.153
	v2.17l-1.936-1.181v2.17l2.735,1.555v1.23l-0.943,0.472l-1.835-1.038v3.302L11.01,25L9.955,24.315z"/>
<path d="M34.256,27.63l0.988,1.46h1.842l0.85-1.46l-0.896-1.555h-1.844L34.256,27.63z M35.014,39.373v-3.301l-1.846,1.037
	l-0.939-0.539v-1.162l2.736-1.555v-2.17l-1.984,1.275V30.66l-1.898,1.093v3.116l-1.037,0.644l-0.877-0.58v-2.089l-2.879,1.625
	l-1.23-0.518v-1.318l3.021-1.652l-1.889-0.949v-1.206l1.072-0.587l2.711,1.597l1.883-1.087l-0.045-0.034l-1.926-1.104l1.869-1.16
	l-1.875-1.086l-2.711,1.593l-1.018-0.506v-1.202l1.834-1.031l-2.928-1.59v-1.317l1.125-0.58l2.887,1.667v-2.124l0.869-0.587
	l1.066,0.615l-0.008,3.18l1.939,1.107l-0.006-2.247l2.033,1.094v-2.17l-2.736-1.559v-1.153l0.939-0.545l1.846,1.038V15.75
	l1.055-0.692l1.066,0.692v3.295l1.91-1.059l0.961,0.636v1.038l-2.83,1.604v2.17l1.936-1.181v2.362l1.996-1.087v-3.399l0.961-0.447
	l1.01,0.447v2.174l2.968-1.604l1.039,0.632v1.229l-2.9,1.649l1.812,1.017V26.4l-0.939,0.521l-2.785-1.646l-1.926,1.223l1.863,1.16
	l-1.918,1.104l1.98,1.038l2.785-1.555l0.895,0.632v1.122l-1.746,0.981l2.781,1.652v1.297l-1.178,0.539l-2.732-1.557v2.059
	l-0.982,0.549l-0.961-0.549v-3.123l-2.023-1.154v2.171l-1.936-1.181v2.17l2.736,1.555v1.229l-0.943,0.472l-1.836-1.037v3.301
	l-1.064,0.686L35.014,39.373z"/>
<path d="M86.522,15.13l0.988,1.46h1.842l0.85-1.46l-0.896-1.555h-1.844L86.522,15.13z M87.28,26.873v-3.301l-1.846,1.037
	l-0.939-0.539v-1.162l2.736-1.555v-2.17l-1.984,1.275V18.16l-1.898,1.093v3.116l-1.037,0.644l-0.877-0.58v-2.089l-2.879,1.625
	l-1.23-0.518v-1.318l3.021-1.652l-1.889-0.949v-1.206l1.072-0.587l2.711,1.597l1.883-1.087l-0.045-0.034l-1.926-1.104l1.869-1.16
	l-1.875-1.086l-2.711,1.593l-1.018-0.506v-1.202l1.834-1.031l-2.928-1.59V8.809l1.125-0.58l2.887,1.667V7.771l0.869-0.587
	l1.066,0.615l-0.008,3.18l1.939,1.107L85.198,9.84l2.033,1.094v-2.17l-2.736-1.559V6.052l0.939-0.545l1.846,1.038V3.25l1.055-0.692
	l1.066,0.692v3.295l1.91-1.059l0.961,0.636V7.16l-2.83,1.604v2.17l1.936-1.181v2.362l1.996-1.087V7.628l0.961-0.447l1.01,0.447
	v2.174l2.969-1.604l1.039,0.632v1.229l-2.9,1.649l1.812,1.017V13.9l-0.939,0.521l-2.785-1.646l-1.926,1.223l1.863,1.16l-1.918,1.104
	l1.98,1.038l2.785-1.555l0.895,0.632v1.122l-1.746,0.981l2.781,1.652v1.297l-1.178,0.539l-2.732-1.557v2.059l-0.982,0.549
	l-0.961-0.549v-3.123l-2.023-1.154v2.171l-1.936-1.181v2.17l2.736,1.555v1.229l-0.943,0.472l-1.836-1.037v3.301l-1.064,0.686
	L87.28,26.873z"/>
<path d="M15.483,65.409l0.988,1.461h1.842l0.85-1.461l-0.896-1.555h-1.844L15.483,65.409z M16.241,77.152v-3.301l-1.846,1.037
	l-0.939-0.539v-1.162l2.736-1.555v-2.17l-1.984,1.275v-2.299l-1.898,1.093v3.116l-1.037,0.644l-0.877-0.58v-2.089l-2.879,1.625
	l-1.23-0.518v-1.318l3.021-1.652l-1.889-0.949v-1.206l1.072-0.588l2.711,1.598l1.883-1.088l-0.045-0.033l-1.926-1.105l1.869-1.16
	l-1.875-1.086l-2.711,1.593L7.38,64.228v-1.201l1.834-1.031l-2.928-1.59v-1.317l1.125-0.579l2.887,1.666v-2.124l0.869-0.587
	l1.066,0.615l-0.008,3.18l1.939,1.107l-0.006-2.247l2.033,1.094v-2.17l-2.736-1.559v-1.153l0.939-0.545l1.846,1.038v-3.295
	l1.055-0.691l1.066,0.691v3.295l1.91-1.059l0.961,0.636v1.038l-2.83,1.604v2.17l1.936-1.181v2.361l1.996-1.087v-3.399l0.961-0.447
	l1.01,0.447v2.174l2.969-1.604l1.039,0.632v1.229l-2.9,1.649l1.812,1.017v1.174L26.286,64.7l-2.785-1.646l-1.926,1.224l1.863,1.16
	l-1.918,1.104l1.98,1.037l2.785-1.555l0.895,0.632v1.122l-1.746,0.981l2.781,1.652v1.297l-1.178,0.539l-2.732-1.557v2.059
	l-0.982,0.549l-0.961-0.549v-3.123l-2.023-1.154v2.171l-1.936-1.181v2.17l2.736,1.555v1.229l-0.943,0.472l-1.836-1.037v3.301
	l-1.064,0.686L16.241,77.152z"/>
<path d="M87.17,73.275l0.988,1.46H90l0.85-1.46l-0.896-1.556h-1.844L87.17,73.275z M87.928,85.018v-3.301l-1.846,1.037l-0.939-0.539
	v-1.162l2.736-1.555v-2.17l-1.984,1.275v-2.299l-1.898,1.094v3.115l-1.037,0.645l-0.877-0.58v-2.09l-2.879,1.625l-1.23-0.518v-1.318
	l3.021-1.652l-1.889-0.949v-1.205l1.072-0.588l2.711,1.597l1.883-1.087l-0.045-0.034l-1.926-1.104l1.869-1.16l-1.875-1.086
	L80.084,72.6l-1.018-0.506v-1.201l1.834-1.031l-2.928-1.59v-1.318l1.125-0.579l2.887,1.667v-2.125l0.869-0.586l1.066,0.614
	l-0.008,3.18l1.939,1.107l-0.006-2.247l2.033,1.094v-2.17l-2.736-1.559v-1.152l0.939-0.545l1.846,1.037v-3.295l1.055-0.691
	l1.066,0.691v3.295l1.91-1.059l0.961,0.637v1.037l-2.83,1.604v2.17l1.936-1.181v2.362l1.996-1.088v-3.398l0.961-0.447l1.01,0.447
	v2.174l2.969-1.604L100,66.975v1.23l-2.9,1.648l1.812,1.018v1.174l-0.939,0.521l-2.785-1.646l-1.926,1.223l1.863,1.16l-1.918,1.104
	l1.98,1.038l2.785-1.556l0.895,0.632v1.123l-1.746,0.98l2.781,1.652v1.297l-1.178,0.539l-2.732-1.557v2.059l-0.982,0.549
	l-0.961-0.549v-3.123l-2.023-1.154v2.172l-1.936-1.182v2.17l2.736,1.555v1.23l-0.943,0.471l-1.836-1.037v3.301l-1.064,0.686
	L87.928,85.018z"/>
<path d="M71.209,39.09l0.988,1.461h1.842l0.85-1.461l-0.896-1.555h-1.844L71.209,39.09z M71.967,50.832v-3.3l-1.846,1.037
	l-0.939-0.539v-1.162l2.736-1.555v-2.17l-1.984,1.275V42.12l-1.898,1.094v3.115l-1.037,0.645l-0.877-0.58v-2.09l-2.879,1.625
	l-1.23-0.518v-1.318l3.021-1.652l-1.889-0.949v-1.206l1.072-0.588l2.711,1.598l1.883-1.088l-0.045-0.033l-1.926-1.105l1.869-1.16
	l-1.875-1.086l-2.711,1.593l-1.018-0.507v-1.201l1.834-1.031l-2.928-1.59v-1.317l1.125-0.579l2.887,1.666v-2.124l0.869-0.587
	l1.066,0.615l-0.008,3.18l1.939,1.107L69.885,33.8l2.033,1.094v-2.17l-2.736-1.559v-1.153l0.939-0.545l1.846,1.038V27.21
	l1.055-0.692l1.066,0.692v3.295l1.91-1.059l0.961,0.636v1.038l-2.83,1.604v2.17l1.936-1.181v2.361l1.996-1.087v-3.399l0.961-0.447
	l1.01,0.447v2.174L83,32.159l1.039,0.632v1.229l-2.9,1.649l1.812,1.017v1.174l-0.939,0.521l-2.785-1.646l-1.926,1.224l1.863,1.16
	l-1.918,1.104l1.98,1.038l2.785-1.555l0.895,0.632v1.123l-1.746,0.98l2.781,1.652v1.297l-1.178,0.539l-2.732-1.557v2.059
	l-0.982,0.549l-0.961-0.549v-3.123l-2.023-1.154v2.172l-1.936-1.182v2.17l2.736,1.555v1.23l-0.943,0.471l-1.836-1.037v3.3
	l-1.064,0.686L71.967,50.832z"/>
<path d="M40.752,87.573l0.988,1.46h1.842l0.85-1.46l-0.896-1.556h-1.844L40.752,87.573z M41.51,99.315v-3.301l-1.846,1.037
	l-0.939-0.539v-1.162l2.736-1.555v-2.17l-1.984,1.275v-2.299l-1.898,1.094v3.115l-1.037,0.645l-0.877-0.58v-2.09l-2.879,1.625
	l-1.23-0.518v-1.318l3.021-1.652l-1.889-0.949v-1.205l1.072-0.588l2.711,1.597l1.883-1.087l-0.045-0.034l-1.926-1.104l1.869-1.16
	l-1.875-1.086l-2.711,1.592l-1.018-0.506V85.19l1.834-1.031l-2.928-1.59v-1.318l1.125-0.579l2.887,1.667v-2.125l0.869-0.586
	l1.066,0.614l-0.008,3.18l1.939,1.107l-0.006-2.247l2.033,1.094v-2.17l-2.736-1.559v-1.152l0.939-0.545l1.846,1.037v-3.295
	l1.055-0.691l1.066,0.691v3.295l1.91-1.059l0.961,0.637v1.037l-2.83,1.604v2.17l1.936-1.181v2.362l1.996-1.088v-3.398l0.961-0.447
	l1.01,0.447v2.174l2.969-1.604l1.039,0.632v1.23l-2.9,1.648l1.812,1.018v1.174l-0.939,0.521l-2.785-1.646l-1.926,1.223l1.863,1.16
	l-1.918,1.104l1.98,1.038l2.785-1.556l0.895,0.632v1.123l-1.746,0.98l2.781,1.652v1.297l-1.178,0.539l-2.732-1.557v2.059
	l-0.982,0.549l-0.961-0.549V91.79l-2.023-1.154v2.172l-1.936-1.182v2.17l2.736,1.555v1.23l-0.943,0.471l-1.836-1.037v3.301
	l-1.064,0.686L41.51,99.315z"/>
<path d="M51.765,60.774l0.988,1.46h1.842l0.85-1.46l-0.896-1.556h-1.844L51.765,60.774z M52.522,72.518v-3.301l-1.846,1.037
	l-0.939-0.539v-1.162l2.736-1.555v-2.17l-1.984,1.275v-2.299l-1.898,1.093v3.116l-1.037,0.644l-0.877-0.58v-2.089l-2.879,1.625
	l-1.23-0.518v-1.318l3.021-1.652L43.7,63.176V61.97l1.072-0.587l2.711,1.596l1.883-1.086l-0.045-0.035l-1.926-1.104l1.869-1.16
	l-1.875-1.087L44.679,60.1l-1.018-0.506v-1.202l1.834-1.031l-2.928-1.59v-1.317l1.125-0.58l2.887,1.667v-2.124l0.869-0.587
	l1.066,0.614l-0.008,3.18l1.939,1.107l-0.006-2.246l2.033,1.094v-2.17l-2.736-1.559v-1.152l0.939-0.545l1.846,1.037v-3.295
	l1.055-0.692l1.066,0.692v3.295l1.91-1.059l0.961,0.636v1.038l-2.83,1.604v2.17l1.936-1.182v2.363l1.996-1.088v-3.399l0.961-0.447
	l1.01,0.447v2.174l2.969-1.604l1.039,0.633v1.229l-2.9,1.649l1.812,1.017v1.175l-0.939,0.521l-2.785-1.646l-1.926,1.223l1.863,1.16
	l-1.918,1.104l1.98,1.038l2.785-1.556l0.895,0.633v1.122l-1.746,0.981l2.781,1.652v1.297l-1.178,0.539l-2.732-1.557v2.059
	l-0.982,0.549l-0.961-0.549v-3.123l-2.023-1.154v2.171l-1.936-1.181v2.17l2.736,1.555v1.229l-0.943,0.472l-1.836-1.037v3.301
	l-1.064,0.686L52.522,72.518z"/>
</svg>
