<svg xmlns="http://www.w3.org/2000/svg" height="100" width="100">
	<path fill="#231F20" d="M61.683,29.47l-50.139-0.003v3.857h49.227C60.896,31.97,61.21,30.683,61.683,29.47z"/> 	<path fill="#231F20" d="M75.716,66.977c-0.755-0.184-1.529-0.297-2.337-0.297H25.421v3.855h39.461l-1.044,2.633 		c-0.47,1.18-0.729,2.445-0.729,3.779c0.009,5.662,4.599,10.256,10.27,10.264c5.281-0.008,9.578-4.02,10.146-9.152 		C79.299,75.979,76.26,71.863,75.716,66.977z"/> 	<path fill="#231F20" d="M88.865,33.324h0.87c5.664-0.011,10.253-4.599,10.265-10.269c-0.012-5.664-4.601-10.25-10.265-10.266 		c-5.088,0.012-9.272,3.715-10.096,8.563C84.67,23.187,88.366,27.787,88.865,33.324z"/> 	<path fill="#231F20" d="M80.196,61.621c-0.471,1.178-0.729,2.439-0.732,3.777c0.004,1.428,0.297,2.783,0.826,4.02 		c0.218,0.504,0.484,0.977,0.781,1.432c0.094,0.15,0.185,0.301,0.285,0.445c0.248,0.34,0.519,0.662,0.805,0.975 		c1.878,2.062,4.561,3.389,7.572,3.393v0.004c5.666-0.012,10.255-4.604,10.267-10.268c-0.012-5.67-4.601-10.256-10.267-10.268H0 		v3.854h81.237L80.196,61.621z"/> 	<path fill="#231F20" d="M85.087,34.604c-0.016-5.668-4.605-10.258-10.266-10.269c-5.672,0.011-10.262,4.601-10.27,10.269 		c0,1.336,0.264,2.6,0.729,3.774l1.048,2.637L5.696,41.012v3.857h69.125C80.485,44.861,85.071,40.271,85.087,34.604z"/>
</svg>
