<svg xmlns="http://www.w3.org/2000/svg" height="100" width="100">
<path fill="#010101" d="M79.848,76.521c-5.304,0-9.564,4.213-9.875,9.438c-2.592,0.25-4.601,2.192-5.062,4.72 	c-0.152-0.017-0.276-0.062-0.438-0.062c-2.816,0-5.125,2.311-5.125,5.125c0,1.408,0.67,2.588,1.655,3.25s2.197,0.875,3.47,0.875 	h13.094h7.125h6.562c4.46,0,8.095-3.633,8.095-8.094s-3.634-8.094-8.095-8.094c-0.678,0-1.29,0.185-1.905,0.344 	C88.221,79.751,84.466,76.521,79.848,76.521z M79.848,78.43c4.034,0,7.327,2.981,7.938,6.844l0.188,1.156l1.094-0.438 	c0.693-0.263,1.429-0.406,2.188-0.406c3.433,0,6.188,2.756,6.188,6.188c0,3.432-2.756,6.188-6.188,6.188h-6.565h-7.125H64.473 	c-1.031,0-1.885-0.211-2.406-0.562c-0.521-0.35-0.812-0.762-0.812-1.655c0-1.785,1.432-3.22,3.219-3.22 	c0.297,0,0.576,0.058,0.906,0.156l1.25,0.375v-1.281c0-0.059-0.027-0.061-0.031-0.094c0-0.055-0.005-0.051,0-0.062 	c0-0.005,0.002-0.029,0-0.031c0.051-2.123,1.771-3.812,3.906-3.812c-0.031,0,0.066,0.018,0.281,0.031l1.062,0.062l-0.031-1.062 	c-0.012-0.261-0.062-0.343-0.062-0.281C71.753,82.052,75.372,78.43,79.848,78.43z"/> <path fill="#010101" d="M31.273,13.889c0-4.766,0.521-9.405,1.471-13.889C14.678,5.136,1.391,21.75,1.391,41.44 	c0,23.769,19.339,43.109,43.11,43.109c10.187,0,19.542-3.566,26.929-9.5C47.804,64.792,31.273,41.284,31.273,13.889z"/>
</svg>
