<svg xmlns="http://www.w3.org/2000/svg" height="100" width="100">
<path d="M37.32,17.322c0-4.572,0.5-9.021,1.41-13.322C21.401,8.927,8.656,24.862,8.656,43.75c0,22.8,18.55,41.352,41.352,41.352 	c9.771,0,18.746-3.422,25.832-9.112C53.176,66.148,37.32,43.6,37.32,17.322z"/> <g> 	<path fill="#FFFFFF" d="M79.718,46.958c-2.227,0-4.335,0.46-6.292,1.203C71.727,37.393,62.48,29.125,51.24,29.125 		c-12.455,0-22.544,10.09-22.544,22.538c0,0.282,0.078,0.543,0.089,0.826c-0.281-0.021-0.549-0.085-0.831-0.085 		c-6.7,0-12.135,5.437-12.135,12.136c0,0.084,0.025,0.162,0.025,0.244c-0.958-0.287-1.951-0.492-2.999-0.492 		c-5.748,0-10.403,4.66-10.403,10.401c0,5.748,4.655,7.929,10.403,7.929h66.872c9.854,0,17.838-7.979,17.838-17.832 		C97.557,54.938,89.57,46.958,79.718,46.958L79.718,46.958z"/> 	<path fill="#221F1F" d="M79.718,85H12.846c-8.003,0-12.78-3.854-12.78-10.307c0-7.047,5.733-12.779,12.78-12.779 		c0.275,0,0.549,0.008,0.828,0.031c1.135-6.258,6.296-11.133,12.693-11.833c0.803-13.02,11.653-23.367,24.874-23.367 		c11.375,0,21.062,7.581,23.968,18.378c1.508-0.362,3.018-0.545,4.51-0.545c11.147,0,20.217,9.065,20.217,20.209 		C99.934,75.934,90.865,85,79.718,85z M12.846,66.668c-4.425,0-8.024,3.602-8.024,8.025c0,3.684,2.699,5.551,8.024,5.551h66.872 		c8.525,0,15.462-6.932,15.462-15.455c0-8.521-6.937-15.453-15.462-15.453c-1.782,0-3.614,0.352-5.446,1.048l-2.736,1.038 		l-0.457-2.89c-1.559-9.868-9.901-17.028-19.837-17.028c-11.12,0-20.166,9.044-20.166,20.159l0.018,0.084 		c0.032,0.211,0.061,0.424,0.069,0.639l0.114,2.654l-2.65-0.181c-0.17-0.012-0.338-0.032-0.505-0.055 		c-0.061-0.008-0.121-0.018-0.182-0.021c-5.321,0-9.671,4.307-9.74,9.629c0.016,0.125,0.024,0.244,0.024,0.371v3.196l-3.062-0.918 		C14.271,66.793,13.535,66.668,12.846,66.668z"/> </g>
</svg>
