<svg xmlns="http://www.w3.org/2000/svg" height="100" width="100"> 
<path d="M35.571,21.612c0-3.928,0.43-7.751,1.211-11.446c-14.889,4.233-25.839,17.925-25.839,34.153 	c0,19.589,15.937,35.529,35.529,35.529c8.395,0,16.105-2.939,22.194-7.83C49.194,63.564,35.571,44.19,35.571,21.612z"/> <g> 	<path fill="#FFFFFF" d="M84.889,56.562c-1.664,0-3.24,0.345-4.703,0.898c-1.271-8.049-8.183-14.23-16.584-14.23 		c-9.312,0-16.854,7.542-16.854,16.848c0,0.212,0.059,0.405,0.067,0.616c-0.21-0.014-0.41-0.062-0.62-0.062 		c-5.009,0-9.071,4.063-9.071,9.071c0,0.062,0.019,0.121,0.019,0.182c-0.716-0.215-1.458-0.367-2.242-0.367 		c-4.296,0-7.776,3.483-7.776,7.775c0,4.298,3.48,5.926,7.776,5.926h49.988c7.366,0,13.336-5.964,13.336-13.328 		C98.223,62.525,92.254,56.562,84.889,56.562L84.889,56.562z"/> 	<path fill="#221F1F" d="M84.889,84.999H34.9c-5.982,0-9.553-2.881-9.553-7.705c0-5.269,4.286-9.552,9.553-9.552 		c0.206,0,0.411,0.006,0.619,0.021c0.849-4.678,4.707-8.32,9.488-8.845c0.601-9.731,8.711-17.466,18.595-17.466 		c8.502,0,15.744,5.667,17.916,13.738c1.127-0.271,2.254-0.408,3.371-0.408c8.334,0,15.111,6.777,15.111,15.107 		S93.223,84.999,84.889,84.999z M34.9,71.295c-3.308,0-5.998,2.691-5.998,5.999c0,2.754,2.018,4.149,5.998,4.149h49.989 		c6.373,0,11.559-5.182,11.559-11.553s-5.186-11.553-11.559-11.553c-1.332,0-2.703,0.264-4.07,0.784l-2.047,0.774l-0.342-2.16 		c-1.164-7.375-7.4-12.729-14.828-12.729c-8.312,0-15.075,6.76-15.075,15.068l0.013,0.062c0.023,0.157,0.045,0.316,0.051,0.478 		l0.086,1.983l-1.981-0.135c-0.127-0.008-0.254-0.025-0.379-0.041c-0.045-0.006-0.09-0.013-0.136-0.016 		c-3.978,0-7.229,3.22-7.281,7.197c0.012,0.095,0.019,0.183,0.019,0.276v2.392l-2.289-0.687 		C35.965,71.389,35.416,71.295,34.9,71.295z"/> </g>
</svg>
